<svg height="512" viewBox="0 0 512 512" width="512" xmlns="http://www.w3.org/2000/svg"><g id="_09-qr" data-name="09-qr"><g id="linear_color-2" data-name="linear color"><path d="m376 6h-240a26.03 26.03 0 0 0 -26 26v448a26.03 26.03 0 0 0 26 26h240a26.03 26.03 0 0 0 26-26v-448a26.03 26.03 0 0 0 -26-26zm-246 75.957h252v324.086h-252zm6-55.957h240a6.006 6.006 0 0 1 6 6v29.957h-252v-29.957a6.006 6.006 0 0 1 6-6zm240 460h-240a6.006 6.006 0 0 1 -6-6v-53.957h252v53.957a6.006 6.006 0 0 1 -6 6z"/><path d="m282.044 446.022h-50.957a10 10 0 1 0 0 20h50.957a10 10 0 0 0 0-20z"/><path d="m336 150h-16a10 10 0 0 0 0 20h6v6a10 10 0 0 0 20 0v-16a10 10 0 0 0 -10-10z"/><path d="m177 185a10 10 0 0 0 10-10v-5h6a10 10 0 0 0 0-20h-16a10 10 0 0 0 -10 10v15a10 10 0 0 0 10 10z"/><path d="m336 294a10 10 0 0 0 -10 10v6h-6a10 10 0 0 0 0 20h16a10 10 0 0 0 10-10v-16a10 10 0 0 0 -10-10z"/><path d="m193 310h-6v-5a10 10 0 0 0 -20 0v15a10 10 0 0 0 10 10h16a10 10 0 0 0 0-20z"/><path d="m314 288v-22h6a10 10 0 0 0 0-20h-38v-12h6a10 10 0 0 0 0-20h-6v-22a10 10 0 0 0 -20 0v22h-28v-22a10 10 0 0 0 -20 0v6h-6a10 10 0 0 0 0 20h6v12h-22a10 10 0 0 0 -10 10v16a10 10 0 0 0 20 0v-6h12v6a10 10 0 0 0 10 10h6v12h-22a10 10 0 0 0 0 20h32a10 10 0 0 0 10-10v-22h12v6a10 10 0 0 0 20 0v-6h12v22a10 10 0 0 0 20 0zm-74-42h-6v-12h28v12z"/><path d="m320 234a10 10 0 0 0 10-10v-16a10 10 0 0 0 -20 0v16a10 10 0 0 0 10 10z"/></g></g></svg>