<?xml version="1.0" encoding="UTF-8"?>
<!DOCTYPE svg PUBLIC "-//W3C//DTD SVG 1.1//EN" "http://www.w3.org/Graphics/SVG/1.1/DTD/svg11.dtd">
<!-- Creator: CorelDRAW X8 -->
<svg xmlns="http://www.w3.org/2000/svg" xml:space="preserve" width="60px" height="60px" version="1.1" style="shape-rendering:geometricPrecision; text-rendering:geometricPrecision; image-rendering:optimizeQuality; fill-rule:evenodd; clip-rule:evenodd"
viewBox="0 0 32 32"
 xmlns:xlink="http://www.w3.org/1999/xlink">
 <defs>
  <style type="text/css">
   <![CDATA[
    .fil3 {fill:none}
    .fil2 {fill:#262261}
    .fil1 {fill:#EE4036}
    .fil0 {fill:#FAAF40}
   ]]>
  </style>
 </defs>
 <g id="Layer_x0020_1">
  <metadata id="CorelCorpID_0Corel-Layer"/>
  <g id="_647390072">
   <g>
    <path class="fil0" d="M1 14c1,-1 2,0 2,-1 0,-1 0,-2 1,-4 1,0 1,-1 2,-2 3,-1 6,-1 9,1 2,2 3,3 5,5l1 1c0,0 0,0 1,0 2,2 4,4 7,1 1,0 1,-1 1,-3 1,-5 -7,-11 -13,-11 -3,0 -4,0 -7,1 -1,1 -2,1 -2,1 -2,2 -4,4 -5,6 -1,1 -2,4 -2,5z"/>
    <path class="fil1" d="M31 18l-1 2c0,0 -1,1 -1,1 0,2 -2,3 -3,4 -4,3 -7,1 -10,-1 -3,-2 -4,-4 -7,-6 -1,-1 -3,-2 -5,-1 -1,1 -2,2 -2,4 1,3 3,6 6,8 2,2 6,3 10,2 2,0 4,0 5,-1 4,-2 8,-7 8,-12z"/>
    <path class="fil2" d="M7 13c3,0 5,2 7,4 0,0 0,0 1,1 0,0 0,0 1,1 2,1 4,4 7,3 1,0 2,-1 2,-1 -4,-1 -7,-5 -10,-7l-1 -1c-1,-1 -2,-2 -2,-2 -1,-1 -2,-1 -3,0 -1,0 -2,1 -2,2z"/>
   </g>
   <rect class="fil3" width="32.4925" height="32.4925"/>
  </g>
 </g>
</svg>
